<?xml version="1.0" encoding="UTF-8"?>
<svg version="1.1" viewBox="0 0 1200 1200" width="300" height="300" xmlns="http://www.w3.org/2000/svg">
<path transform="translate(1198)" d="m0 0h2v1199l-8-6-4-5-268-268-8-7-6-6v-2h-2l-3-4h-3l-24 24-5 6-7 6-5 6-7 6-5 6-7 6-6 7-6 5-5 6-7 6-5 6-7 6-5 6-7 6-5 6-7 6-5 6-7 6-5 6-7 6-5 6-7 6-5 6-7 6-5 6-7 6-5 6-7 6-5 6-7 6-5 6-7 6-5 6-7 6-5 6-7 6-7 8h-2l-2 4-23 23-8 7-5 5-9 10-4 1-9-10-288-288-4 2-294 294-3 1v-1197l7 6 5 4v2h2v2h2l4 4v2l4 2 575 575 4-2 594-594z" fill="#58519E"/>
<path transform="translate(0,1)" d="m0 0 7 6 5 4v2h2v2h2l4 4v2l4 2 575 575 4-2 4-3-2 5-11 11-7 6-1 2h-2l-2 4h-2l-2 4h-2l-2 4-15 15-7 6-63 63h-2l-1 3-6 5-12 12-1 2h-2l-1 3-8 7-20 20-1 2h-2l-1 3-8 7-39 39-5 6h-2l-2 4-9 9h-2l-2 4-13 12-23 23h-2l-2 4h-2l-2 4-14 14-2 5-5 1-295 295-3 1z" fill="#B84E94"/>
<path transform="translate(1199,600)" d="m0 0h1v599l-8-6-4-5-268-268-8-7-6-6v-2h-2l-5-6h3l2-4 6-6h2v-2l4-4h2l2-4 16-16 6-7h2l2-4 7-7h2v-2h2l2-4 16-16h2l2-4 4-4h2l2-4 165-165 1-2h2l2-4 9-9 8-7 15-15 9-7z" fill="#5274B6"/>
</svg>
