<?xml version="1.0" encoding="UTF-8"?>
<svg version="1.1" viewBox="0 0 1200 1200" width="300" height="300" xmlns="http://www.w3.org/2000/svg">
<path transform="translate(1031)" d="m0 0h28v2l14 7 10 9 7 9 5 12 1 5v19l-4 12-7 11-12 13-198 198h-2l-2 4h-2l-2 4h-2l-2 4h-2l-2 4h-2l-2 4h-2l-1 3-7 6-5 6-7 6-5 6-7 6-5 6-7 6-5 6-7 6-5 6-7 6-5 6-7 6-5 6-8 7-629 629h-2v2h-2v2h-2v2h-2v2h-2v2h-2v2h-2v2h-2v2h-2v2h-2v2h-2v2h-2v2h-2v2h-2v2h-2v2h-2v2l-8 7-9 8-13 6-8 2h-17l-14-4-13-9-8-9-8-15-1-3v-27h2l1-5 7-12 11-12 497-497h2l2-4 4-4h2l2-4h2l2-4h2l2-4h2l2-4h2l2-4h2l2-4h2l2-4 6-5 5-6 7-6 5-6 7-6 5-6 7-6 5-6 7-6 5-6 7-6 5-6 7-6 5-6 7-6 5-6 8-7 351-351 10-7z"/>
<path transform="translate(1141,573)" d="m0 0h14l11 3 12 6 10 9 8 12 2 5 2 2v34h-2l-5 10-12 14-224 224h-2l-2 4h-2l-2 4h-2l-2 4h-2l-2 4h-2l-2 4-4 4h-2l-2 4h-2l-2 4h-2l-2 4-6 5-6 7-7 6-5 6-7 6-5 6-7 6-5 6-7 6-5 6-7 6-5 6-8 7-179 179-10 7-10 5-6 2h-19l-15-6-9-6-9-9-7-12-4-16v-8l3-14 6-12 9-10 520-520 13-9 11-4z"/>
<path transform="translate(613,1199)" d="m0 0 2 1z"/>
</svg>
